<svg id="Layer_1" data-name="Layer 1" xmlns="http://www.w3.org/2000/svg" viewBox="0 0 291.7 291.7"><defs><style>.cls-1{fill:#838383;}</style></defs><title>cp</title><path class="cls-1" d="M150.27,4.8C230.75,4.8,296.08,70.22,296,150.73A145.86,145.86,0,0,1,150.1,296.5C69.21,296.45,4.25,231.1,4.3,149.83,4.35,69.93,69.91,4.8,150.27,4.8Zm-.09,27.81a118.1,118.1,0,0,0-118.06,118C32,215.63,84.94,268.63,150,268.68s118.1-52.82,118.15-117.88A118.11,118.11,0,0,0,150.17,32.61Z" transform="translate(-4.3 -4.8)"/><path class="cls-1" d="M193.19,194.06l19.5,19.5c-28.62,30.31-83,37.17-121.1,4-39-34-40.6-94.62-3.39-130.66C125,51.26,181.48,55.31,213.05,88l-19.69,19.32c-14.64-13.89-32-19.87-52-17.12-15.58,2.14-28.39,9.59-38.42,21.69a60.9,60.9,0,0,0,3,80.79,59.2,59.2,0,0,0,43.44,19C166.39,211.93,181,205.77,193.19,194.06Z" transform="translate(-4.3 -4.8)"/></svg>